<?xml version="1.0" standalone="no"?>
<!DOCTYPE svg PUBLIC "-//W3C//DTD SVG 20010904//EN"
 "http://www.w3.org/TR/2001/REC-SVG-20010904/DTD/svg10.dtd">
<svg version="1.0" xmlns="http://www.w3.org/2000/svg"
 width="200.000000pt" height="200.000000pt" viewBox="0 0 200.000000 200.000000"
 preserveAspectRatio="xMidYMid meet">
<metadata>
Created by potrace 1.11, written by Peter Selinger 2001-2013
</metadata>
<g transform="translate(0.000000,200.000000) scale(0.100000,-0.100000)"
fill="#000000" stroke="none">
<path d="M631 1216 c75 -26 89 -33 89 -46 0 -21 -94 -32 -284 -34 -214 -3
-268 -12 -311 -52 -29 -26 -32 -65 -9 -89 28 -27 94 -56 152 -66 32 -6 72 -13
90 -16 l32 -6 0 45 0 45 -77 0 c-83 0 -158 23 -151 45 6 18 65 45 113 52 22 3
87 8 145 11 175 9 246 18 293 36 54 22 25 55 -72 83 -80 23 -86 18 -10 -8z"/>
<path d="M1700 1052 c0 -5 21 -19 48 -30 l47 -20 -82 -1 c-76 -1 -82 -2 -86
-23 -2 -14 -5 -7 -6 16 -1 51 -18 36 -23 -19 l-3 -40 -30 42 c-16 24 -36 43
-42 43 -12 0 -18 -45 -14 -92 1 -10 -3 -18 -9 -18 -6 0 -9 -4 -5 -10 13 -20
34 3 37 42 l3 40 30 -41 c34 -46 47 -49 130 -38 51 7 104 12 188 16 13 1 17
10 17 46 0 41 -3 47 -27 56 -16 5 -35 12 -43 16 -8 3 -28 6 -45 8 -16 1 -42 5
-57 10 -17 4 -28 3 -28 -3z m-73 -134 c-3 -7 -5 -2 -5 12 0 14 2 19 5 13 2 -7
2 -19 0 -25z"/>
<path d="M455 1019 c-12 -18 -9 -119 3 -131 9 -9 12 7 12 65 0 76 -3 87 -15
66z"/>
<path d="M488 1023 c-3 -7 -3 -98 1 -130 0 -7 6 -13 11 -13 6 0 10 32 10 75 0
41 -4 75 -9 75 -6 0 -11 -3 -13 -7z"/>
<path d="M523 953 c1 -45 6 -77 12 -76 14 4 13 145 -2 150 -8 3 -11 -18 -10
-74z"/>
<path d="M565 1022 c-3 -3 -5 -36 -5 -73 l0 -67 34 8 c18 4 78 8 132 9 107 2
116 5 107 26 -9 25 25 17 42 -9 12 -18 22 -22 43 -18 15 3 30 10 34 16 10 16
66 15 72 -1 7 -17 66 -17 67 0 1 6 0 26 0 42 l-2 30 38 -43 c52 -58 62 -55 60
18 -1 40 -6 60 -14 60 -9 0 -12 -13 -10 -40 2 -22 1 -40 -2 -40 -3 0 -19 18
-34 40 -41 58 -57 53 -57 -16 0 -70 -17 -68 -45 4 -26 68 -45 67 -74 -3 -13
-30 -29 -55 -36 -55 -17 0 -28 31 -15 44 5 5 10 20 10 33 0 17 -8 25 -32 31
-57 15 -68 6 -68 -54 0 -41 -4 -54 -15 -54 -9 0 -16 10 -16 28 -1 15 -2 36 -3
47 -1 10 -11 24 -24 31 -29 14 -75 6 -68 -12 3 -8 1 -14 -4 -14 -6 0 -10 4
-10 9 0 9 -97 31 -105 23z m185 -37 c0 -8 -9 -15 -20 -15 -11 0 -20 7 -20 15
0 8 9 15 20 15 11 0 20 -7 20 -15z m135 -5 c0 -9 -11 -16 -27 -18 -23 -3 -28
1 -28 18 0 17 5 21 28 18 16 -2 27 -9 27 -18z m113 -31 c-18 -11 -30 4 -22 26
7 17 8 17 21 -1 10 -14 10 -19 1 -25z m-314 0 c-3 -43 -11 -46 -12 -4 -1 19 2
35 6 35 5 0 7 -14 6 -31z m76 -14 c0 -16 -45 -21 -54 -6 -8 12 4 21 31 21 14
0 23 -6 23 -15z"/>
<path d="M1220 969 c0 -37 -5 -59 -12 -62 -16 -7 6 -8 117 -8 151 0 161 1 146
10 -9 6 -10 11 -2 15 25 16 3 93 -27 97 -4 0 -15 2 -26 4 -42 8 -85 -72 -54
-103 9 -9 4 -12 -22 -12 -26 0 -31 3 -22 12 18 18 14 63 -7 82 -10 9 -35 18
-55 19 l-36 3 0 -57z m235 10 c9 -28 -12 -59 -40 -59 -31 0 -50 32 -35 59 18
34 64 34 75 0z m-151 -1 c15 -25 -3 -52 -38 -56 -24 -3 -26 -1 -26 38 0 39 2
41 26 38 15 -2 32 -11 38 -20z"/>
<path d="M410 955 c0 -37 4 -65 10 -65 6 0 10 28 10 65 0 37 -4 65 -10 65 -6
0 -10 -28 -10 -65z"/>
<path d="M980 818 c-12 -29 -29 -59 -38 -65 -14 -12 -14 -13 0 -13 9 0 23 6
30 13 21 22 67 27 77 9 5 -9 15 -16 23 -18 9 -1 5 17 -16 62 -17 35 -35 64
-42 64 -6 0 -21 -24 -34 -52z m41 -21 c-15 -15 -24 -2 -16 24 7 20 8 21 17 5
7 -12 7 -21 -1 -29z"/>
<path d="M1099 855 c0 -8 -1 -28 -1 -45 0 -69 -1 -67 46 -66 34 0 42 3 35 12
-5 7 -21 11 -34 9 -24 -2 -25 0 -25 51 0 30 -4 54 -10 54 -5 0 -10 -7 -11 -15z"/>
<path d="M1199 833 c-2 -21 -2 -50 1 -64 5 -24 8 -25 68 -24 40 1 66 6 72 14
11 19 59 17 73 -3 9 -11 16 -13 27 -6 8 5 10 10 4 10 -7 0 -22 25 -34 55 -12
30 -28 55 -35 55 -7 0 -23 -25 -36 -55 -27 -61 -43 -75 -46 -39 -8 95 -5 89
-49 92 -42 3 -42 3 -45 -35z m69 5 c-7 -20 -48 -23 -48 -4 0 11 9 16 26 16 16
0 24 -5 22 -12z m118 -45 c-11 -12 -27 13 -20 32 7 17 8 17 17 -3 6 -12 7 -25
3 -29z m-112 -8 c2 -7 -5 -15 -16 -19 -25 -6 -38 0 -38 18 0 17 47 18 54 1z"/>
</g>
</svg>
